<svg xmlns="http://www.w3.org/2000/svg" width="512" height="512" viewBox="0 0 512 512">
  <defs>
    <linearGradient id="g" x1="0" y1="0" x2="1" y2="1">
      <stop offset="0" stop-color="#7c3aed"/>
      <stop offset="1" stop-color="#06b6d4"/>
    </linearGradient>
  </defs>
  <rect width="512" height="512" fill="#0b0f1a"/>
  <circle cx="256" cy="256" r="210" fill="#0f172a"/>
  <path d="M166 208c0-16 13-29 29-29h122c16 0 29 13 29 29v18c0 16-13 29-29 29H195c-16 0-29-13-29-29v-18z" fill="url(#g)"/>
  <path d="M166 300c0-16 13-29 29-29h70c16 0 29 13 29 29v18c0 16-13 29-29 29h-70c-16 0-29-13-29-29v-18z" fill="#e2e8f0" opacity="0.95"/>
  <path d="M308 300c0-16 13-29 29-29h0c16 0 29 13 29 29v18c0 16-13 29-29 29h0c-16 0-29-13-29-29v-18z" fill="#22c55e" opacity="0.95"/>
  <text x="256" y="390" text-anchor="middle" font-family="ui-sans-serif, system-ui, -apple-system, Segoe UI, Roboto" font-size="38" fill="#e2e8f0" opacity="0.92">Tybelos</text>
</svg>

